<?xml version="1.0" encoding="utf-8"?>
<!-- Generator: Adobe Illustrator 21.1.0, SVG Export Plug-In . SVG Version: 6.00 Build 0)  -->
<!DOCTYPE svg PUBLIC "-//W3C//DTD SVG 1.1//EN" "http://www.w3.org/Graphics/SVG/1.1/DTD/svg11.dtd">
<svg version="1.1" id="Layer_1" xmlns="http://www.w3.org/2000/svg" xmlns:xlink="http://www.w3.org/1999/xlink" x="0px" y="0px"
	 viewBox="0 0 16 16" style="enable-background:new 0 0 16 16;" xml:space="preserve">
<style type="text/css">
	.st0{fill:#231F20;}
</style>
<path class="st0" d="M20.3,14.7c-0.4-1-0.9-1.7-1.6-2.1c0.8-1.3,1.3-2.8-0.5-4.2c1.2,1.6,0.6,2.9-0.2,3.8c-1.5-0.5-3.3-0.1-4.7,0.8
	c-1.7,1.1-2.4,2.4-4.6,3.1c-2.5,0.7-3.2-0.9-3-1.8c0.5-1.8,3.1-2.1,5.3-2.3c4.1-0.1,4.7-2,4.9-3.1c0.5-2.8-2-4-3.3-4.1c0,0,0,0,0,0
	c0,0,0,0,0,0C14,5.5,14.8,6.3,14.5,8c-0.4,1.9-1.3,2.7-2.7,3.3c1.4-0.7,2.2-1.4,2.5-3.3c0.2-1.6-0.5-2.3-1.7-3c0,0,0,0,0,0
	c0,0,0,0,0,0c-0.1,0-0.2-0.1-0.2-0.1c-1.2-0.9-3.2-0.6-3.8-0.4C8.1,4.5,8.1,4.9,8.3,4.9c0,0,0,0,0,0c0,0,0.1,0.1,0.1,0.1
	c0,0.1-0.1,0.8,0.5,1.4C8.5,5.9,8.6,5.2,8.6,5.1l0,0c0,0,0,0,0,0c0,0.1,0,0.9,0.7,1.3C8.8,5.9,8.8,5.2,8.8,5.1c0.1,0,0.3,0,0.4,0
	C9.5,5.2,9.8,5.3,10,5.4c0.2,0.1,0.4,0.2,0.5,0.4c0,0.1-0.1,0.3-0.1,0.5c-0.1,0.1-0.1,0.2-0.2,0.3C10.1,6.7,10,6.8,9.9,6.9
	C9.8,6.9,9.8,7,9.6,7c-0.1,0-0.4,0.2-0.4,0.2c0.1,0.1,0.4,0,0.4,0c0.1,0,0.2-0.1,0.3-0.1c0.1,0,0.2-0.1,0.4-0.2
	c0.1-0.1,0.2-0.2,0.3-0.3c0.2-0.2,0.6-0.5,1.2-0.4c0.4,0.1,0.7,0.4,0.4,1.7c-0.5,1.6-2,2.3-3.9,2.6c3.1-0.7,3.8-2.1,3.9-3.2
	c0-0.5,0-0.7-0.3-0.8c-0.5-0.2-1,0.6-1.3,1.5c-0.6,1.9-1.7,2.2-2.4,2.4c-1.8,0.6-4.1,1.5-4.6,4c0.1-1.8,1.5-3.1,3.4-3.9
	c0-1.6-1.1-2.7-1.3-3c0.2-0.2,1-0.3,1.3-0.1C7.3,7.6,7.3,7.8,7.3,8c0,0.1,0,0.2,0,0.3c0,0.1-0.1,0.1-0.2,0.2
	c0.3-0.1,0.4-0.4,0.4-0.7c0.1,0.2,0.1,0.4,0,0.5c0,0.1-0.1,0.2-0.1,0.3c0,0.1-0.1,0.1-0.2,0.2c0.2-0.1,0.3-0.2,0.4-0.3
	c0.1-0.1,0.1-0.2,0.1-0.3c0-0.1,0.1-0.2,0-0.3c0.1,0.1,0.1,0.4,0.1,0.6c0,0.2-0.1,0.4-0.2,0.6C7.8,9.1,7.9,9,8,8.8
	c0.1-0.2,0.1-0.4,0.1-0.6c0.1,0.1,0.1,0.4,0.1,0.5c0,0.2-0.1,0.3-0.2,0.6c0.2-0.1,0.4-0.4,0.4-0.6c0.1-0.2,0.2-0.5,0-0.8
	C8.3,7.4,7.7,7.3,7.4,7C7,6.7,6.4,6.7,6.2,6.7c-0.6,0-1.1,0.2-1.6-0.3C4.5,6.3,4.4,6.2,4.3,6.1C4.2,6,4.1,5.9,4,5.8
	c-0.2-0.3-0.4-0.6-0.4-1c0-0.4,0.2-0.8,0.7-0.5c0-0.2-0.3-0.3-0.3-0.5C4,3.9,4,4,4,4c0-0.1,0-0.3,0-0.5c0,0-0.1,0.1-0.2,0.1
	c0-0.1,0.1-0.3,0.2-0.4c0,0-0.1,0.1-0.2,0.1C3.9,3.2,4,3,4.1,3c0,0-0.1,0-0.2,0c0.1-0.1,0.3-0.3,0.7-0.3C4.4,2.8,4.1,2.8,4,3
	c0.1,0,0.1,0,0.2,0C4.1,3,4,3.1,3.9,3.3c0.1,0,0.1-0.1,0.2-0.1c-0.1,0-0.2,0.2-0.2,0.4c0.1,0,0.1-0.1,0.2-0.1C4,3.6,4,3.8,4,3.9
	c0-0.1,0.1-0.1,0.2-0.2c0,0.1,0,0.2,0,0.2C4.2,4,4.3,4.1,4.4,4.2c0.3,0.3,0.3,0.9,0.4,1.2C5,5.6,5.3,5.9,5.4,5.8c0,0,0,0,0,0
	C5.6,5.7,5.8,5.6,6,5.4C5.8,5.5,5.4,5.6,5.3,5.6c0,0,0,0,0-0.1c0.1,0,0.1-0.1,0.2-0.1c0,0-0.2,0-0.2,0c0,0,0,0,0,0
	c0.1,0,0.1,0,0.2-0.1c0,0-0.2,0-0.2,0c0,0,0,0,0,0c0.1,0,0.1,0,0.2-0.1c-0.1,0-0.2,0-0.2-0.1h0c0-0.4,0.2-0.8,0.2-0.8
	C5.9,4,6.6,4.5,6.7,4.5c0.1,0,0.2,0.1,0.3,0.1C6.9,4.9,6.7,5,6.5,5.1c0.4-0.1,0.7-0.3,0.8-0.4c0.1,0,0.3,0,0.5-0.1
	C7.7,4.4,7.7,4.1,7.9,4c-0.1,0.2-0.1,0.5,0,0.6c0.1,0,0.1-0.1,0.1-0.1C8.1,4.3,8.1,4.1,8,4C7.9,3.9,7.4,3.5,7.4,3.2
	c0-0.2-0.1-0.3-0.1-0.4C7.2,2.4,6.9,2.2,6.6,2C6.5,1.9,5.8,1.5,5.7,1.3C5.6,1.1,5.4,0.9,5.1,1C4.9,1.1,4.6,1.3,4.3,1.7
	c-0.2,0.4,0,0.8,0.4,0.9c-0.3,0-0.5-0.2-0.6-0.3C4,2,4.1,1.5,4.8,1C4.6,0.9,4.4,0.8,4.3,0.8c0,0,0.1,0.1,0.1,0.2
	C4.2,0.9,4,0.9,3.9,0.8C3.9,0.9,4,0.9,4,1C3.7,1,3.5,1,3.2,1C3.2,1,3.3,1,3.4,1.1c-0.4,0-0.7,0.1-1,0.2c0.1,0,0.2,0,0.2,0.1
	C2.3,1.4,2,1.6,1.8,1.7c0.1,0,0.2,0,0.3,0C1.6,1.9,1.3,2.1,1,2.5c0.1,0,0.2-0.1,0.3-0.1C1.1,2.6,0.7,3,0.6,3.3
	c0.1-0.1,0.2-0.1,0.3-0.2C0.7,3.5,0.6,3.7,0.4,4.2C0.5,4.2,0.6,4.1,0.6,4c-0.2,0.5-0.2,1-0.1,1.5c0-0.1,0.1-0.2,0.1-0.2
	C0.6,6,0.7,6.5,0.8,6.7c0-0.1,0.1-0.2,0.1-0.3c-0.1,0.2,0.1,1,0.4,1.3c0-0.1,0.1-0.3,0.1-0.4c0,0.1,0,0.1,0,0.2h0
	C1.1,8.2,0,9.4,0,9.5c-0.1,0.1-0.4,0.2-0.6,0.2c-0.1,0-1,0.3-1.2,0.6c-0.1,0.1-0.1,0.2-0.1,0.4c0.2-0.3,0.3-0.4,0.5-0.5
	c0.2-0.1,0.5-0.1,0.7-0.2c-0.1,0-0.2,0.1-0.4,0.2c-0.1,0-0.2,0.1-0.3,0.2c-0.2,0.2-0.3,0.3-0.3,0.6c0.2-0.5,0.8-0.6,1.2-0.7
	c-0.2,0.2-0.6,0.4-0.4,0.8c0-0.2,0.2-0.3,0.3-0.4c0.1-0.1,0.3-0.2,0.5-0.3c0.3-0.1,0.5-0.3,0.8-0.2c0.1,0,0.2,0.1,0.2,0.2
	c0,0.1,0,0.2,0,0.4c0.1-0.2,0.2-0.3,0.2-0.5c0-0.1,0-0.2-0.1-0.3C1.1,9.8,0.9,9.7,0.6,9.6c0.5-0.7,1-0.9,1.3-1.1
	C2,9,2.3,10,1.8,10.7c-0.5,0.6-1.3,0.5-1.7,0.4C-0.2,11-0.5,11-0.7,11c-0.6,0-1.1,0.2-1.4,0.4C-3.1,10.8-4,9.9-3.3,6.8
	C-2.7,5-2,4.4-0.8,3.5C0,2.9,0.1,2.4-0.2,2.1c-0.1,0.2-0.2,0.1-0.3,0.1c-0.1,0.1-0.1,0.1-0.1,0.2c-0.1-0.1-0.2-0.2-0.3-0.3
	c-0.1,0.1-0.1,0.3-0.1,0.4C-1,2.4-1,2.3-1.1,2.3c0,0.1,0,0.2,0,0.3c-0.1-0.1-0.2-0.2-0.3-0.2c0,0.1,0,0.2,0,0.3
	c-0.1,0-0.2-0.1-0.2-0.1c0,0.1,0,0.1,0,0.2c-0.1-0.1-0.3,0-0.5-0.1c0,0.1,0,0.1,0,0.2c-0.1-0.1-0.3,0-0.5,0c0,0,0.1,0.1,0.2,0.1
	C-2.4,2.9-2.8,3-2.9,3c0.1,0,0.2,0,0.2,0.1c-0.1,0-0.6,0.1-0.7,0.2c0.1,0,0.1,0,0.2,0.1c-0.2,0-0.4,0.1-0.5,0.2c0.1,0,0.1,0,0.2,0.1
	C-3.8,3.7-4,3.8-4.2,3.9C-4.1,3.9-4,4-4,4c-0.2,0-0.5,0.2-0.6,0.3c0.1,0,0.2,0,0.2,0c-0.2,0-0.3,0.3-0.5,0.4c0.1,0,0.1,0,0.2,0
	C-4.8,4.8-5,5-5.2,5.2c0.1,0,0.1,0,0.2,0c-0.2,0.1-0.4,0.3-0.5,0.5c0.1,0,0.2-0.1,0.3-0.1c-0.2,0.1-0.3,0.3-0.4,0.5
	c0.1,0,0.1,0,0.2,0c-0.2,0.1-0.3,0.2-0.4,0.4c0.1,0,0.1,0,0.2,0c-0.1,0.1-0.3,0.3-0.3,0.5c0.1,0,0.1-0.1,0.2-0.1
	C-5.8,6.9-5.9,7.2-6,7.4c0.1,0,0.1,0,0.2-0.1C-5.9,7.4-6,7.6-6.1,7.8c0,0,0.1,0,0.2-0.1c-0.1,0-0.3,0.5-0.2,0.6c0,0,0.1-0.1,0.2-0.1
	c-0.1,0.2-0.2,0.4-0.2,0.6C-6.1,8.8-6,8.8-6,8.7C-6,8.9-6.1,9.2-6.1,9.4C-6,9.3-6,9.3-5.9,9.2C-6,9.5-6,9.8-6,9.9
	c0,0,0.1-0.1,0.1-0.1c0,0.1-0.1,0.4,0,0.7c0-0.1,0.1-0.2,0.1-0.2c0,0.1,0.1,0.7,0.1,0.8c0-0.1,0-0.1,0.1-0.2c0,0.2,0,0.4,0.1,0.6
	l0,0c0,0,0-0.1,0.1-0.1c0,0.2,0,0.3,0.1,0.5c0,0,0-0.1,0-0.1c0,0,0.2,0.4,0.2,0.5c0-0.1,0-0.1,0-0.2c0,0.2,0.1,0.4,0.2,0.5
	c0-0.1,0-0.1,0-0.2c0.1,0.2,0.1,0.4,0.2,0.6c0-0.1,0-0.1,0-0.2c0,0.2,0.1,0.4,0.2,0.6c0-0.1,0-0.1,0-0.2c0.1,0.2,0.1,0.3,0.2,0.5
	c0-0.1,0-0.1,0-0.2c0.1,0.2,0.1,0.3,0.2,0.4h0c0,0,0-0.1,0-0.1c0,0.1,0.1,0.2,0.1,0.3c0,0,0-0.1,0-0.2c0,0.1,0.1,0.2,0.2,0.3
	c0-0.2-0.1-1.3,0.8-2c-0.3,0.5-0.6,0.7-0.6,2.3c0,0.4-0.4,0.9-0.8,1.3c-0.4,0.3-0.8,0.4-0.9,0.5c-0.2,0.1-0.2,0.3-0.2,0.4
	c0,0.2,0.1,0.3,0.2,0.4c0.1,0.3-0.1,0.6-0.2,0.9c0.4-0.2,0.6-0.5,0.7-0.7c0.1,0.1,0.2,0.3,0.2,0.5c0,0.1,0,0.2,0,0.3
	c0,0.1,0,0.2-0.1,0.3c0.2-0.1,0.3-0.2,0.3-0.4c0-0.2,0-0.4,0-0.5c0,0,0.1,0.1,0.2,0.2c0.1,0.1,0.1,0.1,0.2,0.2
	c0.1,0.1,0.1,0.3,0,0.5c0.4-0.2,0.3-0.4,0.3-0.5c0-0.2,0-0.3-0.2-0.5c0.2,0.1,0.3,0.2,0.3,0.3c0.1,0.2,0.1,0.3,0.1,0.5
	c0.3-0.3,0.2-0.5,0.2-0.7c0-0.1-0.1-0.3-0.2-0.4c-0.1-0.1-0.2-0.2-0.4-0.2c-0.1,0-0.4-0.1-0.4-0.2c0-0.1,0.7-0.6,1.3-1
	c0.8-0.4,2.7-0.7,3.7-2.6c-0.5,1.6-2.2,2.3-2.4,2.4c0.2,0.1,0.8,0.4,1.7,0.5c0,0,0,0,0,0c0.6,0.4,1.1,0.8,1.2,1.1c0,0,0,0,0,0.1
	c0,0.1,0.2,0.3,0.4,0.3c0.2,0,0.3,0,0.5,0c0.2,0,0.3,0.1,0.4,0.2c0.1,0.1,0.3,0.2,0.3,0.4c0.1-0.2,0.1-0.4-0.2-0.5
	c0.2,0,0.5,0.3,0.4,0.5c0.1-0.2,0.2-0.4-0.1-0.5c0.3,0.1,0.3,0.3,0.3,0.5c0.1-0.1,0.2-0.4-0.1-0.5c0.2,0.1,0.3,0.2,0.3,0.4
	c0.1-0.1,0.1-0.3,0.1-0.4c-0.1-0.8-1.4-0.4-1.8-0.7c-0.2-0.1-0.3-0.5-0.4-0.7c0.6-0.1,1.3-0.3,1.9-0.6c0,1.2,1,3.3,4.4,3.3
	c2.8,0,4.2-1.7,6.2-4c0.8-0.8,1.8-1.2,2.7-1.1c-0.1,0-0.1,0.1-0.1,0.1c-0.9,0.8-1.5,1.6-1.5,2.5c0,1.1,0.7,2.4,2.6,2.4
	C19,18.3,21.1,17.3,20.3,14.7z M8.4,4.6c0,0,0,0.2-0.2,0.1c0,0,0-0.1,0-0.1c0,0,0-0.1,0-0.1c0,0,0.1-0.1,0.2-0.1
	C8.5,4.4,8.4,4.5,8.4,4.6z M10.1,4.6c-0.3,0-0.7-0.1-0.8-0.2c0.3,0,0.8,0,1,0c-0.1,0-0.2,0-0.2,0C10.2,4.5,10.2,4.6,10.1,4.6z
	 M7.1,3.3c-0.7,0-0.8-0.4-0.7-0.6c0,0-0.1-0.1-0.2-0.2C6.6,2.7,6.9,2.9,7.1,3.3z M4.6,2.4c0-0.1,0-0.2,0-0.3c0,0-0.1,0-0.1,0.1
	c0-0.1,0-0.2,0.1-0.2C4.6,2,4.5,2,4.5,2c0-0.1,0.1-0.1,0.1-0.2c0,0-0.1,0-0.1,0c0.1-0.1,0.2-0.2,0.4-0.2c-0.1,0-0.1,0-0.2,0
	C4.9,1.5,4.9,1.5,5,1.5c0,0-0.1,0-0.2,0c0.1,0,0.3,0,0.5,0c0-0.1-0.1-0.1-0.2-0.2c0.2,0,0.4,0.2,0.5,0.3C5.5,1.5,5.4,1.4,5.3,1.4
	c0.1,0.1,0.1,0.2,0.2,0.2C5.2,1.5,5.1,1.5,5,1.5c0.1,0,0.1,0,0.1,0.1c-0.1,0-0.2,0-0.3,0c0.1,0,0.1,0,0.2,0.1
	c-0.2,0-0.3,0.1-0.4,0.1c0,0,0.1,0,0.1,0c-0.1,0-0.1,0.1-0.2,0.1c0.1,0,0.1,0,0.1,0C4.7,2,4.6,2,4.6,2.1c0.1,0,0.1,0,0.2,0
	C4.7,2.1,4.6,2.2,4.6,2.4c0.1-0.1,0.1-0.2,0.2-0.2c0,0,0,0.1,0,0.1c0,0,0.1-0.1,0.1-0.1c0,0.1,0,0.1,0.1,0.2c0,0-0.1-0.1-0.1-0.1
	c0,0,0,0.1-0.1,0.1c0-0.1,0-0.1,0-0.2C4.7,2.3,4.7,2.3,4.6,2.4z M17.5,17c-0.7-0.1-1.8-1.2-0.3-2.7c0.2-0.2,0.4-0.4,0.7-0.7
	c0.5,0.3,0.9,0.7,1.2,1.3C19.7,16.8,18.1,17.2,17.5,17z"/>
</svg>
